<?xml version="1.0" encoding="UTF-8"?>
<svg id="Layer_2" data-name="Layer 2" xmlns="http://www.w3.org/2000/svg" viewBox="0 0 363 239.2">
  <g id="Layer_1-2" data-name="Layer 1">
    <path d="M361.99,177.04c-.67,6.29-3.94,13.27-7.19,18.62-.87,1.43-3.62,4.09-3.95,5.24-1.06,3.69.19,12.28-.16,16.82-1.75,23.01-23.03,22.18-41.29,20.91-14.67-1.02-22.7-9-22.19-24.09H75.96c-.42,14.55-7.26,22.92-21.93,24.05-18.34,1.41-40.2,2.29-41.96-20.87-.35-4.54.9-13.13-.16-16.82-.33-1.15-3.08-3.81-3.95-5.24-4.32-7.11-6.67-13.3-7.22-21.77-1.06-16.33-1.56-49.56,2.67-64.61,5.63-20.02,18.31-31.22,32.62-45.1-8.89-3.41-22.82-11.15-20.98-22.48,1.86-11.43,25.28-14.62,34.08-11.17,5.59,2.19,6.68,8.25,7.72,13.47L91.84,10.46c8.72-5.9,17.96-9.06,28.48-9.65,42.5-2.36,87.83,1.21,130.49.8,7.15,1.84,13.96,4.71,20.11,8.85l34.99,33.55c1.1-5.58,2.22-11.55,8.24-13.66,9.05-3.18,32.24.06,33.67,11.96,1.32,10.93-12.5,18.61-21.09,21.87,7.6,8.46,17.31,15.63,23.56,25.18,5.18,7.9,10.76,21.71,11.7,31.07,1.31,12.94,1.38,43.74,0,56.61ZM304.14,68.77c-4.61-5.13-9.51-10.06-14.44-14.88-9.37-9.14-28.59-30.37-40.43-33.04-41.82.43-87.34-3.66-128.95-.94-11.21.73-16.34,4.54-24.32,11.7-12.76,11.45-24.99,25.2-37.38,37.16h245.52ZM33.79,97.96c-21.84,1.72-25.01,34.22-3.96,40.38,8.82,2.58,40.59,1.88,48.74-2.51,4.71-2.54,4.31-6.11,2.07-10.24-5.4-9.98-35.6-28.51-46.85-27.63ZM325.86,97.95c-10.7,1.13-38.6,18.14-43.73,27.64-2.24,4.14-2.64,7.7,2.07,10.24,7.92,4.27,32.83,4.48,42.15,3.69,31.31-2.63,23.99-44.16-.5-41.57ZM263.93,124.68H98.84c-.91,11.79,5.84,30.28,18.17,33.78,42.73,1.48,86.01,1.48,128.74,0,12.34-3.5,19.09-21.99,18.17-33.78ZM44.16,194.02h47.62l-24.13-28.86-.89-.21c-11.57,1.15-25.48-1.34-36.75.01-2.96.36-5.02,6.07-5.26,8.89-.51,6.01,2.92,10.94,7.54,14.38,2.06,1.53,9.62,5.4,11.87,5.78ZM270.98,194.02h47.62c1.08,0,9.57-4.23,11.03-5.22,5.18-3.51,8.94-8.38,8.38-14.95-.24-2.82-2.3-8.53-5.26-8.89-11.27-1.36-25.18,1.14-36.75-.01l-.89.21-24.13,28.86ZM257.58,173.5H105.19c.52,10.11,7.37,18.52,17.34,20.46l118.3-.11c9.68-2.19,16.24-10.45,16.75-20.35Z" style="fill: #fc0;"/>
  </g>
</svg>