<?xml version="1.0" encoding="UTF-8"?>
<svg id="Layer_2" data-name="Layer 2" xmlns="http://www.w3.org/2000/svg" viewBox="0 0 362.89 363">
  <g id="Layer_1-2" data-name="Layer 1">
    <g>
      <path d="M362.89,220.42v13.46c-1.06,2.6-1.09,5.68-1.77,8.5-2.62,10.8-8.03,20.33-15.22,28.71-25.98,23.22-49.32,52.84-75.52,75.4-10.05,8.65-21.36,13.7-34.36,16.31-5.9-.46-12.65.62-18.43,0-11.46-1.23-26.13-9.14-34.74-16.64L16.99,180.41C-.17,160.73-4.98,134.37,5.55,110.14c6.44-14.82,18.21-24.03,29.17-35.3-6.79-6.97-14.98-12.99-16.21-23.45-2.45-20.79,12.67-35.49,33.41-32.68,10.09,1.37,15.4,9.6,22.77,15.35,13.19-13.09,25.08-26.26,43.69-31.47,24.91-6.97,46.94.55,65.13,17.78,55.91,52.97,107.55,110.86,163.45,163.91,8.04,9.37,14.8,23.77,15.94,36.14ZM130.98,11.66c-8.8.82-17.22,4-24.6,8.71-25.68,25.78-57.25,51.81-80.85,79.29-18.46,21.5-19.16,50.43-.75,72.25l168.37,167.49c21.76,17.1,49.79,15.39,70.51-2.45,22.65-25.08,50.91-47.7,73.01-72.95,19.05-21.77,20.26-50.67,1.42-73L171.53,24.54c-11.35-9.54-25.67-14.26-40.55-12.88ZM43.05,30.03c-4.95.79-10.71,5.45-12.6,10.07-4.76,11.64,4.25,19.4,12.43,25.91l23.73-23.05c-7.15-7.02-12.13-14.76-23.56-12.93Z" style="fill: #fc0;"/>
      <path d="M362.89,66.7v9.21c-2.05,3.99-8.2,5.17-10.55.98-1.18-2.11-1.13-10.42-1.71-13.88-4.89-29.4-28.29-47.68-56.85-51.56-4-.54-10.05,1.22-10.32-5.33-.27-6.59,6.26-6.28,11.03-6,29.94,1.79,57.68,24.75,65.58,53.46l2.82,13.12Z" style="fill: #fc0;"/>
      <path d="M287.56,22.93c2.98-.67,8.57.16,11.7.75,18.19,3.44,34.51,18.77,39.17,36.65,1.26,4.82,4.43,17.52-2.28,18.98-8.88,1.93-7-8.62-8.19-14.19-3.07-14.35-15.77-27.05-30.12-30.11-3.4-.73-7.35-.41-10.29-1.05-5.43-1.18-5.43-9.81,0-11.03Z" style="fill: #fc0;"/>
      <path d="M287.55,45.6c7.35-1.67,18.59,4.14,23.25,9.75,4.01,4.83,12.37,23.68,1.39,24.14-6.7.28-5.22-5.03-6.18-8.73-1.89-7.29-6.53-11.92-13.82-13.81-1.46-.38-3.14.02-4.64-.32-5.44-1.25-5.43-9.79,0-11.03Z" style="fill: #fc0;"/>
      <path d="M135.25,22.94c10.34-.22,20.75,4.1,28.48,10.81l164.45,164.33c15.47,17.05,15.5,39.19.67,56.67-21.9,25.82-51.73,48.82-74.39,74.41-17.1,14.39-39.32,14.14-56.01-.71L34.71,164.83c-15.47-17.81-15.78-39.12-.35-57.05,22.18-25.77,51.56-48.83,74.45-74.35,7.37-6.23,16.66-10.28,26.43-10.48ZM135.25,34.28c-6.03.18-12.93,2.75-17.61,6.55-22.74,26.07-53.96,49.55-75.85,75.79-9.79,11.74-10.11,26.74-.35,38.63l78.78,78.57,113.61-113.03-79.32-79.96c-5.05-4.13-12.74-6.74-19.27-6.55ZM242.14,129.09l-113.09,113.03,79.32,79.96c10.69,8.61,26.72,8.53,37.24-.35l76.54-76.51c8.51-10.56,8.52-26.28,0-36.85l-80-79.28Z" style="fill: #fc0;"/>
      <path d="M257.09,197.91c4.64-.95,9.24.17,12.97,3.01,3.4,2.6,16.36,15.48,18.72,18.83,5.27,7.48,4.79,17.87,0,25.41-3.21,5.05-24.08,25.87-29.13,28.97-6.58,4.05-14.6,4.35-21.7,1.37-3.85-1.62-20.59-17.79-23.08-21.57-4.09-6.2-3.3-12.56,1.25-18.2-7.08-6.69-14.49-18.86-25.42-11.39-7.4,5.06-9.1,12.61-3.57,19.77,3.19,4.14,14.2,12.54,15.76,16.15,2.14,4.96-3.15,9.26-7.97,7.23-11.15-11.98-29.97-23.43-19.72-42.35,5.6-10.35,17.63-17.12,29.31-13.28,8.64,2.84,12.77,10.66,19.71,15.57,8.13-5.81,23.89-27.7,32.86-29.54ZM259.92,209.19l-35.83,35.82.55,3.42c8.37,6.13,17.22,24.47,29.46,15.9,3.92-2.75,21-20.02,24.11-24.07s4.08-8.98,1.38-13.45c-1.01-1.67-14.37-14.95-16.28-16.31-1.09-.78-1.89-1.54-3.39-1.31Z" style="fill: #fc0;"/>
      <path d="M100.22,137.25c-4.78-5.14-11.66-10.64-14.35-17.17-8.42-20.45,11.85-40.9,32.66-34.06,8.48,2.79,13.74,10.36,20.14,16.05,5.72-4.52,13.43-5.34,19.63-1.25,4.27,2.82,20.98,20.24,22.79,24.68,2.75,6.74,2.49,13.98-.78,20.46-2.64,5.23-24.37,27.06-29.7,31.23-8.62,6.73-19.43,7.6-28.92,2.02-4.46-2.62-21.51-19.66-23.3-24.18-2.34-5.9-1.09-11.54,3.67-15.75.26-1.19-1.21-1.37-1.83-2.03ZM107.56,95.93c-8.12,1.13-12.71,8.56-11.88,16.46.75,7.07,10.26,12.75,14.53,18.05l20.19-20.18c-7.37-6.31-11.61-15.9-22.84-14.33ZM147.93,109.32c-4.66,5.76-38.02,35.24-38.66,39.34-.25,1.63.7,3.21,1.62,4.48,2,2.79,16.06,16.3,18.81,17.33,4.87,1.82,9.36.79,13.41-2.19,5.49-4.03,19.62-18.51,24.18-24.01,4.32-5.21,5.44-10.08,2.12-16.32l-18.04-18.09-3.43-.55Z" style="fill: #fc0;"/>
    </g>
  </g>
</svg>