<?xml version="1.0" encoding="UTF-8"?>
<svg id="Layer_2" data-name="Layer 2" xmlns="http://www.w3.org/2000/svg" viewBox="0 0 287.96 363">
  <g id="Layer_1-2" data-name="Layer 1">
    <path d="M143.56,0c1.61-.27,24.89,13.33,28.88,15.35,36.56,18.47,75.4,31.1,114.71,39l.36,2.15c-2.7,54.33,6.7,113.76-8.48,166-19.98,68.73-76.29,118-134.88,140.49C69.56,335.71,2.97,264.73,0,170.8L.36,54.35C50.25,44.52,98.68,26.41,143.56,0ZM142.85,104.03c-5.72.52-9.66,5.23-11.02,11.38,1,18.41-1.48,38.94-.08,57.09,1.37,17.69,22.06,17.12,23.92,1.59,2.1-17.54-1.44-39.84.08-57.91-.75-6.99-6.75-12.72-12.9-12.16ZM141.33,208.91c-19.5,3.1-16.28,37.54,3.45,36.37,21.48-1.27,19.52-40.02-3.45-36.37Z" style="fill: #fc0;"/>
  </g>
</svg>