<?xml version="1.0" encoding="UTF-8"?>
<svg id="Layer_2" data-name="Layer 2" xmlns="http://www.w3.org/2000/svg" viewBox="0 0 294.74 363">
  <g id="Layer_1-2" data-name="Layer 1">
    <g>
      <path d="M161.65,0c1.86,1.33,2.52,2.22,2.8,4.52,1.88,15.37-1.49,34.48-.05,50.21.99,10.77,12.22,2.73,17.5,7.58,3.19,2.93-.7,11.31,3.62,13.85,6.63,3.89,28.58-1.51,34.61,2.26,1.1.68,2.3,2.17,2.96,3.31,5.41,9.38,8.55,29.35,15.51,37.43,5.42,6.3,20.94,16.29,28.31,21.85,5.72,4.31,24.88,16.37,26.95,21.82.49,1.29.9,2.59.87,4.01l-.19,79.99c-.79,1.98-1.94,4.1-3.4,5.66-3.22,3.43-17.84,14.7-22,17.02-7.03,3.92-12.03-.19-9.93-7.85,2.51-9.15,15.36-20.26,15.21-27.83-4.32-16.11-5.47-34.1-9.89-50.03-2.24-8.09-6.29-10.97-11.97-16.6-11.77-11.67-25-24-37.28-35.17-3.76-3.42-8.62-8.84-13.59-9.4l-106.62-.03-6.83,2.23c-14.81,14.41-30.75,27.83-45.41,42.37-5.67,5.63-9.72,8.5-11.97,16.6-4.46,16.06-5.72,34.3-9.89,50.59.26,9.15,15.12,18.25,15.97,29.33.54,7.02-5.14,8.78-10.7,5.8-3.34-1.79-19.36-14.23-21.98-17.03-1.79-1.9-3.58-4.9-3.59-7.56,1.73-25.2-2.19-53.22,0-78.09.44-4.96,2.42-6.95,5.97-10.05,15.13-13.23,35.09-23.84,50.16-37.62,7.28-10.5,9.47-26.95,15.51-37.43.66-1.14,1.86-2.63,2.96-3.31,6.04-3.76,27.98,1.63,34.61-2.26,4.32-2.54.43-10.92,3.62-13.85,5.28-4.85,16.51,3.19,17.5-7.58,1.45-15.73-1.92-34.83-.05-50.21.28-2.3.94-3.19,2.8-4.52h27.87Z" style="fill: #fc0;"/>
      <g>
        <path d="M108.94,362.94c-.05,0-.42-.35-.9-.39-1.29-.1-2.64.1-3.93.02l-.21-13.76,7.44-1.84,2.47-10.71,8.45-.09,1.67-9.64,9.42-1.53,1.39-9.56,11.14-11.15-.39-5.91,7.43-7.07,22.43,23.14-6.66,6.72-5.95-.35-11.13,11.1-10.01,1.31-1.12,10.02-10.02,1.11-.17,8.55-10.9,2.64-1.18,7.35c-3.07-.13-6.21.18-9.28,0Z" style="fill: #fc0;"/>
        <path d="M128.9,177.52c3.71-.45,6.36-.08,9.82,1.1,13.46,4.61,33.7,24.71,32.58,39.81-1.3,17.62-30.34,46.32-43.43,57.88-6.42,5.66-18.68,16.65-26.79,18.49-14.35,3.26-31.85-11.27-39.59-22.27-14.14-20.1-8.41-28.87,5.68-45.76,11.98-14.36,43.07-46.99,61.72-49.24ZM138.02,197.96c-8.59,9.03,6.15,21.53,13.6,11.56,6.66-8.9-6.02-19.52-13.6-11.56ZM114.79,209.8c-4.08.48-8.93,3.53-12.15,6.03l30.24,30.23c2.68-3.84,6.55-9.72,6.09-14.61-.85-9-14.88-22.76-24.18-21.65ZM94.28,222.32l-9.83,9.83,32.1,31.74,9.42-9.54-31.69-32.02ZM77.58,240.13c-2.23,3.11-5.6,6.66-6.08,10.61-1.24,10.19,10.68,22.29,19.64,25.56,7.02,2.56,12.07-.54,17.04-5.24l-30.59-30.92Z" style="fill: #fc0;"/>
        <path d="M190.16,231.68c4.67-.2,9.36,2.2,12.86,5.12,10.09,8.44,19.84,20.46,29.16,29.85,3.85,6.79,4.59,12.96-1.49,18.57-8,7.37-19.56,15.72-28.41,22.43-7.41,5.62-13.29,9.95-22.7,4.17-4.24-2.6-19.4-18.01-22.94-22.33-5.39-6.57-5.57-13.58-.86-20.54,7.82-11.55,18.62-22.29,26.67-33.82,1.83-2.12,4.97-3.33,7.72-3.45ZM187.76,250.64c-2.19,2.01-2.41,5.61-.66,8.01l20.94,21c5.64,4.12,12.45-2.5,8.71-8.33l-20.94-21c-2.23-1.93-5.94-1.62-8.05.33Z" style="fill: #fc0;"/>
        <path d="M183.1,173.08c40.39-3.18,63.92,44.75,36.63,74.46l-4.99-5.32c14.3-16.01,11.71-41.53-5.47-54.35-14.25-10.63-33.78-9.92-47.13,1.76l-5.3-4.66c6.28-6.98,16.92-11.16,26.25-11.9Z" style="fill: #fc0;"/>
        <path d="M162.01,254.59l-4.08-2.79,4.3-5.77c.85.25,3.98,2.35,3.84,3.12l-4.06,5.43Z" style="fill: #fc0;"/>
      </g>
    </g>
  </g>
</svg>