<?xml version="1.0" encoding="UTF-8"?>
<svg id="Layer_2" data-name="Layer 2" xmlns="http://www.w3.org/2000/svg" viewBox="0 0 356.1 363">
  <g id="Layer_1-2" data-name="Layer 1">
    <g>
      <path d="M321.32,0c18.03,3.25,32.73,16.36,34.73,35.11l.04,291.41c-1.38,19.68-16.09,32.9-34.77,36.48h-102.09c-20.91-3.53-35.57-19.93-35.48-41.45l.03-128.71h97.49c1.37,0,6.83-1.57,8.53-2.1,32.66-10.29,42.13-51.89,15.23-74.12-4.6-3.8-17.2-10.27-23.05-10.27h-97.13l-1.06-1.06V38.64c0-18.9,16.88-36.65,35.45-38.64h102.09ZM265.87,20.76c-39.45,4.45-34.46,65.21,7.52,61.4,40.91-3.72,36.22-66.33-7.52-61.4ZM267.3,226.38c-22.84,1.85-36.62,26.97-24.79,47.06,1.3,2.2,6.11,6.99,6.36,7.82,1.45,4.9-.38,18.37.16,24.66,2.38,27.91,39.83,25.39,41.85,2.88.61-6.81-1.47-21.48.12-26.83.46-1.56,7.25-8.39,8.97-12.3,9.46-21.47-10.25-45.11-32.66-43.29Z" style="fill: #fc0;"/>
      <path d="M107.92,185.04l19.82-70.57,152.84-.35c27.96,2.73,43.11,39.49,22.34,59.96-4.2,4.14-15.82,10.96-21.65,10.96H107.92Z" style="fill: #fc0;"/>
      <path d="M59.47,201.62c1.5-.05,3.67.49,5.23.78,8.27,1.55,28.06,6.25,35.42,9.24s8.14,8.49,6.74,15.24c-6.1,29.48-18.35,59.67-24.83,89.31-1.84,5.13-7.28,8.21-12.55,7.65-6.65-.71-32.64-7.49-38.83-10.12-5.4-2.3-9-7.18-7.63-13.3l26.77-93.76c2.41-2.96,5.77-4.92,9.69-5.05Z" style="fill: #fc0;"/>
      <path d="M95.13,202.04c-.89.78-20.77-4.72-23.09-5.58-.83-.31-1.15.44-.97-1.09l26.6-96.08c-.04-11.4-9.59-17.88-7.16-29.85,1.03-5.1,6.23-18.04,8.38-23.53,3.04-7.77,5.93-16.39,14.96-18.36,6.38-1.39,25.26,3.18,30.47,7.31,3.87,3.07,6.52,8.55,6.09,13.61-.52,6.12-5.8,33.94-8.31,38.52-4.4,8.07-18.13,11.1-21.04,20.79l-25.92,94.26Z" style="fill: #fc0;"/>
      <path d="M85.23,114.15l-19.55,70.94c-22.11-1.26-44.58,5.94-59.01-15.42-13.36-19.77-5.98-44.4,16.19-53.03,1.53-.6,6.94-2.49,8.14-2.49h54.24Z" style="fill: #fc0;"/>
      <path d="M268.02,234.15c19.14-1.12,34.21,19.85,22.42,36.63-1.78,2.54-6.61,5.5-7.25,8.35-1.92,8.48,1.79,22.9-.63,31.28-2.74,9.5-19.1,11.34-23.55,1.82s-.45-23.32-1.65-33.09c-.63-2.81-5.7-6.08-7.53-8.77-9.97-14.69.82-35.19,18.19-36.21Z" style="fill: #fc0;"/>
      <path d="M265.85,28.54c33.73-4.63,37.51,42.45,7.54,45.82-32.07,3.61-35.94-41.93-7.54-45.82ZM273.82,64.16v-25.52c-4.28-3.62-7.35-1.8-7.83,3.51-.31,3.4-.48,18.45.35,20.99,1.07,3.29,5.37,3.61,7.49,1.02Z" style="fill: #fc0;"/>
    </g>
  </g>
</svg>