<?xml version="1.0" encoding="UTF-8"?>
<svg id="Layer_2" data-name="Layer 2" xmlns="http://www.w3.org/2000/svg" viewBox="0 0 272.84 363">
  <g id="Layer_1-2" data-name="Layer 1">
    <path d="M27.03,363c-14.96-2.56-25.69-13.4-26.98-28.78l-.03-191.08c-.34-2.59,3.93-7.44,6.05-7.44h24.51c.41-18.18-1.51-36.14,2.48-53.99,24.35-108.94,182.37-108.94,206.72,0,3.99,17.85,2.07,35.81,2.48,53.99h24.51c2.12,0,6.4,4.85,6.05,7.44l-.03,191.08c-.84,14.41-12.6,27.16-26.98,28.78H27.03ZM196.8,135.69v-38c0-5.27-4.98-17.3-7.69-22.14-23.03-41.18-82.96-40.81-105.62.46-2.61,4.75-7.44,16.54-7.44,21.68v38h120.76ZM135.59,196.24c-28.77.7-40.03,38.05-17.02,55.01l-4.83,44.57c.8,4.05,3.66,6.01,7.6,6.62,5.94.91,23.52.87,29.57.1,4.13-.52,7.36-2.37,8.21-6.72l-4.83-44.57c23.64-17.58,11.01-55.74-18.69-55.01Z" style="fill: #fc0;"/>
  </g>
</svg>