<?xml version="1.0" encoding="UTF-8"?>
<svg id="Layer_2" data-name="Layer 2" xmlns="http://www.w3.org/2000/svg" xmlns:xlink="http://www.w3.org/1999/xlink" viewBox="0 0 989.15 351.61">
  <defs>
    <linearGradient id="linear-gradient" x1="0" y1="175.81" x2="290.81" y2="175.81" gradientUnits="userSpaceOnUse">
      <stop offset="0" stop-color="#172a54"/>
      <stop offset="1" stop-color="#101e39"/>
    </linearGradient>
    <linearGradient id="linear-gradient-2" x1="11.72" y1="175.42" x2="279.81" y2="175.42" gradientUnits="userSpaceOnUse">
      <stop offset=".2" stop-color="#fff"/>
      <stop offset=".5" stop-color="#fffdcb"/>
      <stop offset=".51" stop-color="#fec017"/>
    </linearGradient>
    <linearGradient id="linear-gradient-3" x1="20.72" y1="175.29" x2="271.8" y2="175.29" gradientUnits="userSpaceOnUse">
      <stop offset=".5" stop-color="#223560"/>
      <stop offset=".51" stop-color="#101e39"/>
    </linearGradient>
    <linearGradient id="linear-gradient-4" x1="92.11" y1="160.13" x2="201.58" y2="160.13" gradientUnits="userSpaceOnUse">
      <stop offset=".5" stop-color="#ffdd5d"/>
      <stop offset=".55" stop-color="#fcbe09"/>
    </linearGradient>
  </defs>
  <g id="Layer_1-2" data-name="Layer 1">
    <g>
      <path d="M290.6,35.8l.21,159.39c-4.21,77.37-80.33,126.73-143.61,156.42-23.41-8.72-46.89-22.09-67.33-36.58C36.04,283.95,1.93,246.34.72,190.18c-.96-44.54-.96-100.54,0-145.09.03-1.53.49-8.44,1.26-9.21C33.36,21.15,68.27,9.76,102.58,3.96c38.94-6.59,70.08-4.73,108.4,3.97,27.5,6.25,54.13,16.03,79.62,27.87ZM279.6,42.8c-33.3-15.22-68.9-26.62-105.46-31.03-30.82-3.72-59.27-.41-89.38,6.36-24.88,5.59-49.41,13.79-72.51,24.49l-.52,152.56c3.87,70.45,75.95,119.76,134.47,145.45,58.48-28.27,129.86-74.52,133.62-146.44l-.21-151.39Z" style="fill: url(#linear-gradient);"/>
      <path d="M279.6,42.8l.21,151.39c-3.77,71.92-75.15,118.18-133.62,146.44C87.67,314.95,15.59,265.63,11.72,195.18l.52-152.56c23.1-10.7,47.62-18.9,72.51-24.49,30.11-6.77,58.57-10.08,89.38-6.36,36.56,4.42,72.16,15.81,105.46,31.03ZM271.59,46.8c-41.93-17.03-88.51-30.61-134.38-28.21-39.19,2.05-80.12,14.85-116.28,29.21l-.21,152.37c3.32,46.19,47.68,87.31,84.52,110.48,5.83,3.67,38.03,22.49,42.53,21.56,49.05-23.47,119.73-71.37,124.03-131.05l-.21-154.37Z" style="fill: url(#linear-gradient-2);"/>
      <path d="M271.59,46.8c-38.72-15.73-81.4-28.5-123.83-28.48-3.52,0-7.04.08-10.55.27-39.19,2.05-80.12,14.85-116.28,29.21l-.21,152.37c3.32,46.19,47.68,87.31,84.52,110.48,5.83,3.67,38.01,22.48,42.52,21.56,0,0,0,0,0,0,49.05-23.47,119.73-71.37,124.03-131.05l-.21-154.37ZM198.76,246.64h-104l13.92-78.58c-29.16-28.97-18.44-79.4,21.31-91.7,6.15-1.9,12.1-2.76,17.78-2.73,45.58.24,73.26,57.86,37.46,94.46l13.54,78.55Z" style="fill: url(#linear-gradient-3);"/>
      <path d="M198.76,246.64h-104l13.92-78.58c-29.16-28.97-18.44-79.4,21.31-91.7,55.48-17.17,95.5,50.57,55.23,91.73l13.54,78.55ZM128.76,208.64h37l-9.09-57.37c21.2-9.77,16.94-42.28-7.37-43.67-27.35-1.56-34.72,31.72-11.48,43.72l-9.07,57.32Z" style="fill: url(#linear-gradient-4);"/>
      <path d="M128.76,208.64l9.07-57.32c-23.24-12.01-15.87-45.29,11.48-43.72,24.31,1.39,28.57,33.9,7.37,43.67l9.09,57.37h-37Z" style="fill: #101e39;"/>
    </g>
    <text transform="translate(340.18 126.18)" style="fill: #101e39; font-family: RyverSansFreeVerMedium, &apos;Ryver Sans Free Ver&apos;; font-size: 121px;"><tspan x="0" y="0">EMERGENCY</tspan><tspan x="0" y="103">LOCKSMITH</tspan></text>
    <text transform="translate(344.76 299.91)" style="fill: #fec017; font-family: RyverSansFreeVerMedium, &apos;Ryver Sans Free Ver&apos;; font-size: 57px; letter-spacing: .19em;"><tspan x="0" y="0">DUBLIN</tspan></text>
  </g>
</svg>