<?xml version="1.0" encoding="UTF-8"?>
<svg id="Layer_2" data-name="Layer 2" xmlns="http://www.w3.org/2000/svg" viewBox="0 0 325.6 325.44">
  <g id="Layer_1-2" data-name="Layer 1">
    <path d="M172.28,0l24.68,3.61c61.93,13.16,111.76,63,124.92,124.96l3.61,24.68c-.27,6.31.36,12.79,0,19.08-8.19,142.96-186.81,206.5-283.54,99.54C-49.6,170.66,18.26,7.74,153.21,0h19.07ZM241.99,91.82c-4.07.06-8.16,1.94-11.24,4.52l-93.21,93.12-42.81-39.07c-17.02-14.61-37.89,6.46-22.19,23.47,16.14,17.49,38.64,32.82,55.3,50.25,6.51,5.27,15.8,4.86,21.89-.88l105.46-105c8.32-10.54.11-26.6-13.19-26.41Z" style="fill: #fc0;"/>
  </g>
</svg>